<svg width="351" height="351" viewBox="0 0 351 351" fill="none" xmlns="http://www.w3.org/2000/svg">
<circle cx="175.5" cy="175.5" r="175.5" fill="#82068C"/>
<path fill-rule="evenodd" clip-rule="evenodd" d="M232.432 279.521C214.197 277.734 208.227 269.716 207.272 266.365C206.973 264.875 207.396 263.511 207.646 263.015L144.246 269.965C125.712 271.554 110.117 268.638 105.509 265.994C92.3553 258.447 94.0493 233.476 101.274 225.781C99.7464 224.259 100.404 222.645 101.049 221.063C101.287 220.478 101.524 219.897 101.647 219.327C98.5334 217.589 90.6863 208.405 90.6863 204.309C88.5937 201.033 88.1536 192.353 88.1951 188.423C82.8391 188.423 81.17 177.376 82.0918 172.784C82.7894 169.309 82.0918 161.986 81.2198 159.008C80.0241 156.923 78.6041 147.217 79.1023 144.735C78.8034 143.841 79.3297 127.855 79.7251 125.125C81.1202 115.493 89.6897 107.873 94.672 104.77C100.352 101.891 104.761 99.0607 107.875 95.9579C107.329 95.5043 107.781 93.4598 108.209 91.5199C108.367 90.8055 108.522 90.1053 108.622 89.504C101.647 78.8302 101.896 66.9153 103.765 62.8195C106.505 58.7238 121.701 39.4385 125.064 38.1204C148.94 28.7622 149.172 28.9301 160.128 36.8558C161.232 37.6543 162.445 38.5315 163.801 39.4856C166.129 40.2361 166.14 41.3616 166.162 43.5626C166.171 44.5649 166.183 45.7903 166.417 47.3048C168.967 49.6578 169.011 55.0799 169.046 59.4576C169.057 60.8526 169.067 62.1416 169.157 63.1913C170.054 64.0849 169.531 67.7008 169.157 69.397C172.769 77.0921 170.029 82.4289 168.784 84.7871C174.786 83.6586 178.729 87.9684 180.051 89.413C180.183 89.5572 180.288 89.6728 180.367 89.7516C181.065 90.4467 181.904 90.3722 182.236 90.2481C190.207 86.5247 191.951 92.1097 191.951 93.3509C192.325 93.3509 193.944 93.475 193.944 94.8403C193.944 95.9325 194.941 96.371 195.439 96.4537C199.425 96.702 212.254 102.908 217.486 107.5C221.372 107.003 221.72 108.865 221.471 110.727C224.71 110.106 225.208 111.844 225.582 113.209C230.024 115.774 239.109 120.904 239.906 120.904C242.868 120.904 243.411 121.432 244.516 122.506C244.851 122.832 245.238 123.208 245.76 123.635C258.963 134.433 260.458 135.798 260.458 142.624C260.506 143.437 261.085 145.164 261.673 146.917C262.306 148.805 262.949 150.724 262.949 151.56C262.949 152.965 261.521 155.042 260.145 157.044C259.186 158.439 258.251 159.798 257.842 160.869C259.038 162.855 257.842 202.199 256.347 206.046C257.468 207.908 258.34 222.181 255.226 224.291C255.824 225.284 254.977 227.931 254.479 229.131C260.721 231.435 263.396 236.197 265.168 239.351C265.305 239.595 265.437 239.83 265.565 240.053C271.244 249.982 267.807 254.078 261.703 257.677C262.999 257.777 266.312 260.284 267.807 261.525C274.552 267.303 271.516 272.745 269.914 275.616C269.841 275.746 269.772 275.871 269.706 275.99L269.675 276.046C264.424 282.902 246.609 281.015 235.548 279.844C234.434 279.726 233.389 279.615 232.432 279.521ZM219.105 146.1C218.898 146.069 218.686 146.042 218.472 146.015C216.505 145.764 214.42 145.498 214.87 142.004C212.13 141.756 206.998 140.366 204.407 138.281C202.871 138.612 199.35 139.174 197.556 138.777C195.439 141.011 192.549 147.937 195.439 154.788C196.186 157.187 197.706 162.607 197.806 165.089C198.022 165.327 198.286 165.566 198.564 165.818C199.883 167.015 201.529 168.508 200.048 171.543C200.67 171.791 202.315 171.791 203.909 169.806C205.618 168.443 207.902 166.184 210.593 163.522C214.765 159.394 219.917 154.297 225.426 150.071C224.702 148.185 222.864 146.662 219.105 146.1ZM156.328 125.19C157.975 140.949 157.505 157.369 157.167 169.167C156.891 178.782 156.704 185.327 157.823 185.94C157.929 186.257 157.774 186.624 157.487 186.933C157.079 187.371 156.406 187.693 155.83 187.593C155.38 187.514 154.99 187.178 154.833 186.437C153.961 179.61 153.961 169.806 155.207 161.49C155.581 153.05 154.983 128.241 154.584 125.753C155.162 125.571 155.744 125.383 156.328 125.19ZM142.751 122.022C142.211 121.691 141.157 121.352 141.257 122.642C142.231 122.642 142.57 124.343 142.688 126.242C142.751 127.254 142.751 128.323 142.751 129.22C143.374 131.578 143.947 147.937 142.751 151.313C142.331 152.485 142.818 153.996 143.217 155.236C143.41 155.834 143.583 156.37 143.623 156.774C143.67 157.239 143.542 159.115 143.389 161.345C143.135 165.067 142.813 169.774 143.125 170.55C143.324 170.649 143.872 170.592 144.121 170.55C143.765 167.528 144.238 162.534 144.536 159.394C144.654 158.149 144.744 157.196 144.744 156.774C144.163 155.201 143.299 152.107 143.997 151.809C144.744 145.231 145.491 136.667 144.37 128.848C144.349 128.591 144.321 128.297 144.286 127.979C144.054 125.846 143.532 122.627 142.751 122.022ZM204.283 222.926C203.95 225.077 203.859 229.703 204.656 230.994L190.457 230.373C194.858 228.966 203.485 225.508 204.283 222.926Z" fill="white"/>
<path d="M269.675 276.046C264.424 282.902 246.609 281.015 235.548 279.844C234.434 279.726 233.389 279.615 232.432 279.521C214.197 277.734 208.227 269.716 207.272 266.365C206.973 264.875 207.396 263.511 207.646 263.015M269.675 276.046L269.706 275.99M269.675 276.046C269.685 276.028 269.695 276.009 269.706 275.99M261.703 257.677C262.999 257.777 266.312 260.284 267.807 261.525C274.552 267.303 271.516 272.745 269.914 275.616C269.841 275.746 269.772 275.871 269.706 275.99M261.703 257.677C267.807 254.078 271.244 249.982 265.565 240.053C265.437 239.83 265.305 239.595 265.168 239.351C263.396 236.197 260.721 231.435 254.479 229.131M261.703 257.677C260.607 257.677 259.088 256.685 258.465 256.189C258.764 252.316 256.348 251.721 254.604 251.721C254.438 251.307 253.931 250.306 253.234 249.611C252.536 248.916 252.196 246.26 252.113 245.018C252.023 244.188 251.785 243.451 251.445 242.784M254.479 229.131C254.977 227.931 255.824 225.284 255.226 224.291C258.34 222.181 257.468 207.908 256.347 206.046C257.842 202.199 259.038 162.855 257.842 160.869M254.479 229.131C254.188 230.248 253.458 232.731 252.86 233.724C253.657 234.717 252.249 240.178 251.445 242.784M257.842 160.869C252.385 175.142 245.511 183.086 244.888 182.465C243.892 182.862 237.788 191.774 236.917 194.132C236.667 195.993 235.546 196.614 233.18 196.986M257.842 160.869C258.251 159.798 259.186 158.439 260.145 157.044C261.521 155.042 262.949 152.965 262.949 151.56C262.949 150.724 262.306 148.805 261.673 146.917C261.085 145.164 260.506 143.437 260.458 142.624C260.458 135.798 258.963 134.433 245.76 123.635C245.238 123.208 244.851 122.832 244.516 122.506C243.411 121.432 242.868 120.904 239.906 120.904C239.109 120.904 230.024 115.774 225.582 113.209C225.208 111.844 224.71 110.106 221.471 110.727C221.72 108.865 221.372 107.003 217.486 107.5C212.254 102.908 199.425 96.702 195.439 96.4537C194.941 96.371 193.944 95.9325 193.944 94.8403C193.944 93.475 192.325 93.3509 191.951 93.3509C191.951 92.1097 190.207 86.5247 182.236 90.2481C181.904 90.3722 181.065 90.4467 180.367 89.7516C180.288 89.6728 180.183 89.5572 180.051 89.413C178.729 87.9684 174.786 83.6586 168.784 84.7871C170.029 82.4289 172.769 77.0921 169.157 69.397C169.531 67.7008 170.054 64.0849 169.157 63.1913C169.067 62.1416 169.057 60.8526 169.046 59.4576C169.011 55.0799 168.967 49.6578 166.417 47.3048C166.183 45.7903 166.171 44.5649 166.162 43.5626C166.14 41.3616 166.129 40.2361 163.801 39.4856C162.445 38.5315 161.232 37.6543 160.128 36.8558C149.172 28.9301 148.94 28.7622 125.064 38.1204C121.701 39.4385 106.505 58.7238 103.765 62.8195M103.765 62.8195C101.896 66.9153 101.647 78.8302 108.622 89.504M103.765 62.8195C106.092 60.4644 109.493 58.179 113.605 57.0079M108.622 89.504C109.079 86.7735 112.808 75.1316 113.605 74.238M108.622 89.504C108.522 90.1053 108.367 90.8055 108.209 91.5199C107.781 93.4598 107.329 95.5043 107.875 95.9579M107.875 95.9579C104.761 99.0607 100.352 101.891 94.672 104.77C89.6897 107.873 81.1202 115.493 79.7251 125.125C79.3297 127.855 78.8034 143.841 79.1023 144.735C78.6041 147.217 80.0241 156.923 81.2198 159.008C82.0918 161.986 82.7894 169.309 82.0918 172.784C81.17 177.376 82.8391 188.423 88.1951 188.423C88.1536 192.353 88.5937 201.033 90.6863 204.309C90.6863 208.405 98.5334 217.589 101.647 219.327M107.875 95.9579C108.249 96.8267 109.744 97.4472 110.989 97.0749M101.647 219.327C102.229 220.196 103.74 221.809 105.135 221.313C115.722 218.582 136.648 220.196 142.627 223.795C141.879 225.781 144.744 231.118 146.612 230.001C148.107 229.107 149.477 230.042 149.976 230.621C152.367 232.806 151.802 231.118 151.221 230.001L153.214 230.373C156.203 230.969 164.424 237.82 167.289 241.916M101.647 219.327C101.524 219.897 101.287 220.478 101.049 221.063C100.404 222.645 99.7464 224.259 101.274 225.781C94.0493 233.476 92.3553 258.447 105.509 265.994C110.117 268.638 125.712 271.554 144.246 269.965L207.646 263.015M207.646 263.015C207.646 258.919 214.87 252.093 222.592 239.061M222.592 239.061C223.88 239.061 225.139 239.882 226.952 239.943M222.592 239.061C217.735 237.323 218.607 237.323 227.45 226.525M251.445 242.784C250.361 240.661 248.244 239.267 246.632 237.944C246.433 236.653 244.722 235.751 243.892 235.462C241.65 234.221 237.83 234.634 236.045 234.965C235.868 235.136 235.693 235.302 235.521 235.462M226.952 239.943C228.914 240.009 231.525 239.184 235.521 235.462M226.952 239.943C226.952 238.316 231.715 234.965 235.521 235.462M227.45 226.525C228.146 226.153 225.208 222.802 231.436 213.494C232.432 212.004 234.799 208.405 233.18 196.986M227.45 226.525C226.952 227.32 224.336 229.132 221.97 229.752M233.18 196.986C235.108 195.587 235.331 194.005 234.507 192.518M233.18 196.986L234.507 192.518M215.742 192.518C214.496 193.263 215.742 189.415 216.987 186.313C218.233 183.21 220.6 178.866 220.724 176.135C218.607 169.681 218.358 167.944 221.347 163.972C221.845 163.6 222.592 162.607 223.091 162.607C221.845 159.628 222.418 158.139 225.706 153.671C225.891 152.426 225.853 151.186 225.426 150.071M215.742 192.518C215.742 196.49 213.5 201.703 211.009 204.806C206.4 211.508 204.283 215.579 204.283 222.926M215.742 192.518C215.742 190.552 216.454 189.184 217.605 188.298M215.742 192.518L217.605 188.298M197.556 138.777C199.35 139.174 202.871 138.612 204.407 138.281C206.998 140.366 212.13 141.756 214.87 142.004C214.42 145.498 216.505 145.764 218.472 146.015C218.686 146.042 218.898 146.069 219.105 146.1C222.864 146.662 224.702 148.185 225.426 150.071M197.556 138.777C195.439 141.011 192.549 147.937 195.439 154.788C196.186 157.187 197.706 162.607 197.806 165.089C198.022 165.327 198.286 165.566 198.564 165.818C199.883 167.015 201.529 168.508 200.048 171.543M197.556 138.777C186.097 134.433 171.898 117.554 187.841 96.4537M200.048 171.543C200.67 171.791 202.315 171.791 203.909 169.806C205.618 168.443 207.902 166.184 210.593 163.522C214.765 159.394 219.917 154.297 225.426 150.071M200.048 171.543C196.02 172.784 186.695 177.128 181.613 184.575C173.641 193.263 161.061 198.848 146.986 203.316M146.986 203.316C149.602 204.268 154.933 206.444 155.332 207.536C155.73 208.628 157.407 206.833 158.196 205.798C159.193 204.847 162.033 204.508 165.421 210.763C167.912 212.252 181.14 219.674 182.236 221.064C182.485 221.478 182.834 222.43 182.236 222.926M146.986 203.316C145.392 202.323 143.249 202.241 142.378 202.323C142.17 201.62 141.032 200.288 138.143 200.586C137.271 199.22 131.416 195.373 129.174 194.504C128.261 193.098 125.139 189.267 119.957 185.196C119.957 181.969 123.171 180.057 118.587 178.866C118.379 177.211 117.765 173.777 116.968 173.281C117.84 172.412 119.334 170.426 116.345 169.433C115.249 169.036 116.304 167.778 116.968 167.199C117.632 166.62 117.366 163.848 114.477 162.855C115.016 161.531 115.523 158.313 113.231 156.029C112.259 152.477 110.351 148.926 104.014 144.485M182.236 222.926C182.493 221.444 181.812 221.212 180.617 221.833M182.236 222.926L180.617 221.833M182.236 222.926C184.769 225.036 189.958 229.479 190.457 230.373M167.289 241.916C166.809 235.605 176.606 223.916 180.617 221.833M167.289 241.916C170.777 243.777 175.759 254.823 176.008 256.561C176.257 258.299 177.378 260.408 179.371 260.284C181.364 260.16 180.492 258.174 180.617 256.561C180.716 255.27 179.579 250.231 178.997 247.873C180.741 249.114 181.987 256.561 181.987 257.306C181.987 258.05 181.115 261.277 184.229 261.65C187.343 262.022 186.969 258.05 187.343 256.561C187.716 255.196 186.72 249.693 185.973 247.252C187.177 249.404 189.211 254.327 189.211 256.561C188.837 261.277 190.083 262.27 192.2 262.394C194.318 262.518 194.692 258.05 194.941 255.692C195.14 253.806 194.027 248.866 193.446 246.632C195.19 250.355 196.685 252.465 196.062 257.306C195.813 261.526 196.062 263.015 198.304 263.015C200.097 263.015 201.044 256.395 201.293 253.086C202.165 245.763 194.816 236.579 190.457 230.373M100.775 142.376C101.967 143.102 103.043 143.804 104.014 144.485M104.014 144.485C101.523 139.686 94.2486 128.947 85.0812 124.38C81.9921 122.99 80.8877 123.801 80.7217 124.38M190.457 230.373L204.656 230.994M190.457 230.373C194.858 228.966 203.485 225.508 204.283 222.926M204.656 230.994C203.859 229.703 203.95 225.077 204.283 222.926M204.656 230.994C204.781 231.986 205.254 234.27 206.151 235.462C207.048 236.653 209.348 239.268 210.386 240.426C211.258 241.399 214.496 239.943 213.624 238.192M144.37 128.848C144.349 128.591 144.321 128.297 144.286 127.979M144.37 128.848C145.491 136.667 144.744 145.231 143.997 151.809C143.299 152.107 144.163 155.201 144.744 156.774C144.744 157.196 144.654 158.149 144.536 159.394C144.238 162.534 143.765 167.528 144.121 170.55M144.37 128.848C146.976 127.949 150.677 126.982 154.584 125.753M142.751 129.22C138.267 128.848 133.534 126.614 130.046 122.022M142.751 129.22C142.751 128.323 142.751 127.254 142.688 126.242M142.751 129.22C143.374 131.578 143.947 147.937 142.751 151.313C142.331 152.485 142.818 153.996 143.217 155.236C143.41 155.834 143.583 156.37 143.623 156.774C143.67 157.239 143.542 159.115 143.389 161.345C143.135 165.067 142.813 169.774 143.125 170.55M142.688 126.242C142.57 124.343 142.231 122.642 141.257 122.642C141.157 121.352 142.211 121.691 142.751 122.022C143.532 122.627 144.054 125.846 144.286 127.979M142.688 126.242C134.904 126.242 126.185 115.816 118.836 107.5C115.971 104.259 111.886 97.2735 110.989 97.0749M110.989 97.0749C115.473 95.7345 124.69 95.4614 131.043 97.5714C132.704 98.0264 136.274 98.5643 138.516 98.5643C141.007 98.1919 146.488 98.9366 151.346 86.7735C151.519 86.4839 151.852 85.6813 151.793 84.7876M113.605 74.238C113.273 70.9427 112.808 62.8834 113.605 57.0079M113.605 74.238C117.84 77.0926 128.651 78.0359 133.036 77.8373M113.605 57.0079C123.577 54.1673 137.724 57.8811 150.847 83.05C151.047 83.4845 151.368 84.0742 151.793 84.7876M151.793 84.7876C154.015 88.5237 159.054 95.654 164.089 101.667M164.089 101.667C167.706 105.987 171.322 109.73 173.891 111.224C175.012 111.876 175.883 117.082 165.919 121.153C163.022 122.78 159.649 124.087 156.328 125.19M164.089 101.667C164.824 104.025 164.748 109.61 158.57 113.086C156.178 115.071 150.432 120.284 147.858 122.642C146.806 123.842 144.618 126.589 144.286 127.979M143.125 170.55L142.751 174.522M143.125 170.55C143.324 170.649 143.872 170.592 144.121 170.55M142.751 174.522C143.042 174.48 143.673 174.447 143.872 174.646M142.751 174.522C142.917 174.687 143.374 174.944 143.872 174.646M143.872 174.646L144.121 170.55M156.328 125.19C155.744 125.383 155.162 125.571 154.584 125.753M156.328 125.19C157.975 140.949 157.505 157.369 157.167 169.167C156.891 178.782 156.704 185.327 157.823 185.94C157.929 186.257 157.774 186.624 157.487 186.933M154.584 125.753C154.983 128.241 155.581 153.05 155.207 161.49C153.961 169.806 153.961 179.61 154.833 186.437C154.99 187.178 155.38 187.514 155.83 187.593M157.487 186.933C157.848 188.381 158.62 191.327 158.819 191.525M157.487 186.933C157.079 187.371 156.406 187.693 155.83 187.593M158.819 191.525C158.238 191.484 157.05 191.501 156.951 191.898M158.819 191.525C158.221 192.121 157.324 192.022 156.951 191.898M156.951 191.898C156.577 190.476 155.83 187.624 155.83 187.593M213.624 238.192C214.621 239.061 218.607 238.564 218.108 235.834C216.738 233.848 216.24 231.614 216.24 230.621M213.624 238.192C212.669 236.91 210.635 234.171 210.137 233.476C209.514 232.607 209.14 220.072 209.763 219.327M216.24 230.621C216.738 231.862 221.471 231.614 221.97 229.752M216.24 230.621C215.908 228.594 215.318 224.217 215.617 222.926M221.97 229.752C221.471 227.063 220.649 221.114 221.347 218.83M234.507 192.518C232.223 188.394 221.884 185.007 217.605 188.298" stroke="#D60000" stroke-width="2"/>
</svg>
